<svg width="48" height="48" viewBox="0 0 48 48" fill="none" xmlns="http://www.w3.org/2000/svg">
<g clip-path="url(#clip0_301_150)">
<path d="M24 48C37.2548 48 48 37.2548 48 24C48 10.7452 37.2548 0 24 0C10.7452 0 0 10.7452 0 24C0 37.2548 10.7452 48 24 48Z" fill="#E9573E"/>
<path fill-rule="evenodd" clip-rule="evenodd" d="M18.0622 30.043L30.4172 30.1587V32.968L35.8557 35.5614L23.6715 46.9937L13.2164 35.0791L18.0622 33.0162V30.043Z" fill="#F9DCA4"/>
<path fill-rule="evenodd" clip-rule="evenodd" d="M41.5365 40.3828C39.2939 42.7895 36.5792 44.7081 33.562 46.0186C30.5447 47.3292 27.2897 48.0037 24.0001 48C23.0039 47.9999 22.0086 47.9384 21.0199 47.8159C17.9878 47.3813 15.0541 46.4237 12.3496 44.9856C10.0671 43.7152 8.0063 42.0822 6.2478 40.1506L7.24431 37.7428L16.0428 33.8174C16.7224 37.3405 19.3321 42.7766 23.9465 45.8578C26.1047 44.5544 27.9777 42.8288 29.4533 40.7845C30.929 38.7402 31.977 36.4191 32.5345 33.9603L40.3504 37.7685L41.5365 40.3828Z" fill="#677079"/>
<path opacity="0.11" fill-rule="evenodd" clip-rule="evenodd" d="M30.9058 33.2002C31.4712 33.4697 32.4382 33.921 32.5322 33.9761C30.9555 38.9222 20.3225 40.7334 17.1877 33.3889L30.9058 33.2002Z" fill="black"/>
<path fill-rule="evenodd" clip-rule="evenodd" d="M24.178 6.54932C40.7069 6.54932 34.265 33.9405 24.178 33.9405C14.6509 33.9405 7.64897 6.54932 24.178 6.54932Z" fill="#FFE8BE"/>
<path fill-rule="evenodd" clip-rule="evenodd" d="M14.2641 18.6758C11.8797 19.7166 13.9068 24.6463 15.4074 24.6238C14.7851 22.6952 14.4011 20.6977 14.2641 18.6758Z" fill="#F9DCA4"/>
<path fill-rule="evenodd" clip-rule="evenodd" d="M34.2836 18.6758C36.6681 19.7158 34.6409 24.6463 33.1411 24.6238C33.7631 22.6951 34.1468 20.6976 34.2836 18.6758Z" fill="#F9DCA4"/>
<path fill-rule="evenodd" clip-rule="evenodd" d="M18.1718 11.99C17.7119 14.1399 17.8735 16.2774 15.8354 16.6719C15.3508 16.7651 15.03 17.4214 14.9251 18.0001C14.6888 19.2623 14.5898 20.5464 14.63 21.83C14.7108 22.2719 14.3224 20.9818 14.3224 20.9818L14.2564 18.5166C14.2564 18.5166 14.2277 18.0444 14.2385 17.3243C14.2618 15.8642 14.4281 13.4968 15.1675 12.7729C16.2712 11.6933 18.1718 11.99 18.1718 11.99Z" fill="#AD835F"/>
<path fill-rule="evenodd" clip-rule="evenodd" d="M30.3651 11.99C30.8249 14.1399 30.6641 16.2774 32.7014 16.6719C33.1861 16.7651 33.5076 17.4214 33.6117 18.0001C33.8383 19.2675 33.9196 20.5566 33.8541 21.8424C33.7725 22.2851 34.1609 20.9943 34.1609 20.9943L34.2898 18.5259C34.2898 18.5259 34.3092 18.0444 34.2976 17.3243C34.2758 15.8642 34.1096 13.4968 33.3694 12.7729C32.2657 11.6933 30.3651 11.99 30.3651 11.99Z" fill="#AD835F"/>
<path fill-rule="evenodd" clip-rule="evenodd" d="M19.7003 36.0985C18.5275 34.9668 17.5892 34.0891 16.7379 33.2107C15.6467 32.0837 15.277 30.9412 15.0649 28.9404C14.5837 25.483 14.3131 21.9995 14.2548 18.5093C14.2548 18.5093 15.0579 23.4281 16.5554 25.853C17.3243 27.098 20.47 24.1714 21.7244 23.7264C22.1509 23.529 22.6315 23.4817 23.0884 23.5919C23.5452 23.7022 23.9513 23.9636 24.2409 24.3338C24.5251 23.963 24.9276 23.7006 25.3816 23.5901C25.8355 23.4796 26.3136 23.5277 26.7364 23.7264C27.9916 24.1714 31.0937 26.6716 31.9061 25.853C33.8595 23.8833 34.2805 18.5163 34.2805 18.5163C34.1989 22.0455 33.9061 25.5666 33.4036 29.0608C33.1217 31.1936 32.9788 32.02 32.2494 32.8542C31.179 34.0565 29.9897 35.1476 28.6999 36.1109C28.0568 36.6204 26.9391 37.0989 24.0917 37.0818C21.4463 37.0662 20.3612 36.7361 19.7003 36.0985Z" fill="#60350A"/>
<path fill-rule="evenodd" clip-rule="evenodd" d="M30.7605 12.425C31.1724 12.3452 31.5989 12.3939 31.9822 12.5643C32.3656 12.7347 32.6874 13.0188 32.9042 13.378C34.1127 15.4075 34.2129 15.6692 34.2129 15.6692C34.2129 15.6692 34.07 12.0389 33.9838 11.6071C34.0877 11.5114 34.2249 11.4601 34.3661 11.4642C34.5073 11.4683 34.6413 11.5273 34.7395 11.6288C34.825 11.8013 34.3947 7.97835 32.1492 7.24514C31.3283 4.91348 28.4568 3.1861 28.4568 3.1861L28.3271 4.48164C28.038 3.60212 27.4957 2.82749 26.7683 2.2548C26.0408 1.68211 25.1606 1.33683 24.2378 1.26221C24.7558 1.84551 24.6316 2.27192 24.6316 2.27192C23.8234 1.93336 22.9538 1.76621 22.0778 1.78104C22.1865 2.47153 21.3873 3.20629 21.3873 3.20629C21.3873 3.20629 20.891 2.44978 18.9259 2.19114C18.5803 3.44319 17.9317 3.65911 17.3065 4.24241C16.7812 4.78038 16.2979 5.35787 15.861 5.9698C15.861 5.9698 15.9255 4.76047 16.3573 4.41484C16.5197 4.30765 12.6944 5.81523 14.6082 11.4331C14.2654 11.4248 13.9297 11.5324 13.6556 11.7384C13.3814 11.9445 13.1848 12.237 13.0975 12.5687C14.1771 12.8708 13.7305 14.5026 14.3348 15.5605C14.7597 14.3333 15.0408 11.9426 17.6964 12.5687C19.5977 13.0168 21.423 13.9776 23.6148 14.0545C26.7116 14.1624 27.8875 12.5368 30.7605 12.425Z" fill="#60350A"/>
<path fill-rule="evenodd" clip-rule="evenodd" d="M25.1768 29.9761C25.4794 30.0268 25.7894 30.0123 26.0859 29.9335C26.3825 29.8548 26.6588 29.7136 26.8964 29.5194C27.4556 28.8747 27.9115 27.959 27.0634 27.4665C26.2354 26.8786 25.2841 26.4875 24.282 26.3232C23.2739 26.4848 22.3163 26.8754 21.4828 27.465C20.442 28.0669 21.0789 28.8747 21.6389 29.5194C21.8765 29.7136 22.1528 29.8548 22.4494 29.9335C22.7459 30.0123 23.0559 30.0268 23.3585 29.9761C22.7286 27.7827 25.8075 27.7827 25.1768 29.9761Z" fill="#FFE8BE"/>
</g>
<defs>
<clipPath id="clip0_301_150">
<rect width="48" height="48" fill="white"/>
</clipPath>
</defs>
</svg>
