<svg width="36" height="36" viewBox="0 0 36 36" fill="none" xmlns="http://www.w3.org/2000/svg">
<path fill-rule="evenodd" clip-rule="evenodd" d="M5.1967 30.8032C7.39339 33 10.9289 33 18 33C25.071 33 28.6066 33 30.8032 30.8032C33 28.6066 33 25.071 33 18C33 10.9289 33 7.39339 30.8032 5.1967C28.6066 3 25.071 3 18 3C10.9289 3 7.39339 3 5.1967 5.1967C3 7.39339 3 10.9289 3 18C3 25.071 3 28.6066 5.1967 30.8032ZM22.125 24C22.125 24.6213 21.6213 25.125 21 25.125H15C14.3787 25.125 13.875 24.6213 13.875 24C13.875 23.3787 14.3787 22.875 15 22.875H21C21.6213 22.875 22.125 23.3787 22.125 24ZM24 19.125C24.6213 19.125 25.125 18.6213 25.125 18C25.125 17.3787 24.6213 16.875 24 16.875H12C11.3787 16.875 10.875 17.3787 10.875 18C10.875 18.6213 11.3787 19.125 12 19.125H24ZM28.125 12C28.125 12.6213 27.6213 13.125 27 13.125H9C8.37868 13.125 7.875 12.6213 7.875 12C7.875 11.3787 8.37868 10.875 9 10.875H27C27.6213 10.875 28.125 11.3787 28.125 12Z" fill="#444444"/>
</svg>
