<svg width="61" height="60" viewBox="0 0 61 60" fill="none" xmlns="http://www.w3.org/2000/svg">
<path d="M24.1599 21.825L25.4474 26.4825C26.6599 30.87 27.2649 33.065 29.0474 34.0625C30.8299 35.0625 33.0924 34.4725 37.6174 33.2975L42.4174 32.0475C46.9424 30.8725 49.2049 30.285 50.2349 28.5575C51.2649 26.8275 50.6599 24.6325 49.4449 20.245L48.1599 15.59C46.9474 11.2 46.3399 9.00499 44.5599 8.00749C42.7749 7.00749 40.5124 7.59749 35.9874 8.77499L31.1874 10.02C26.6624 11.195 24.3999 11.785 23.3724 13.515C22.3424 15.2425 22.9474 17.4375 24.1599 21.825Z" fill="black"/>
<path d="M5.94297 13.1177C6.00884 12.8803 6.12086 12.6581 6.27263 12.464C6.4244 12.2699 6.61294 12.1076 6.82748 11.9864C7.04202 11.8652 7.27834 11.7875 7.52294 11.7577C7.76753 11.7279 8.0156 11.7466 8.25297 11.8127L12.5105 12.9927C13.6385 13.2998 14.6678 13.8936 15.4984 14.7163C16.329 15.539 16.9326 16.5627 17.2505 17.6877L22.628 37.1527L23.023 38.5202C24.6174 39.1078 25.9609 40.2263 26.828 41.6877L27.603 41.4477L49.778 35.6852C50.0163 35.6231 50.2646 35.6086 50.5085 35.6425C50.7525 35.6764 50.9874 35.758 51.1998 35.8827C51.4122 36.0073 51.598 36.1726 51.7465 36.3691C51.895 36.5655 52.0034 36.7893 52.0655 37.0277C52.1275 37.266 52.142 37.5143 52.1081 37.7582C52.0742 38.0022 51.9926 38.2371 51.868 38.4495C51.7433 38.6619 51.578 38.8477 51.3816 38.9962C51.1851 39.1448 50.9613 39.2531 50.723 39.3152L28.6305 45.0552L27.8055 45.3102C27.7905 48.4852 25.598 51.3902 22.2805 52.2502C18.3055 53.2852 14.218 50.9952 13.153 47.1402C12.088 43.2852 14.448 39.3177 18.423 38.2852C18.6213 38.2352 18.8188 38.1919 19.0155 38.1552L13.6355 18.6852C13.49 18.1853 13.2179 17.7314 12.8457 17.3675C12.4734 17.0036 12.0135 16.7418 11.5105 16.6077L7.25047 15.4252C7.01308 15.3596 6.79094 15.2478 6.59675 15.0963C6.40255 14.9449 6.2401 14.7566 6.11868 14.5423C5.99726 14.328 5.91925 14.0919 5.8891 13.8475C5.85895 13.603 5.87726 13.3551 5.94297 13.1177Z" fill="black"/>
</svg>
