<?xml version="1.0" encoding="iso-8859-1"?>
<!-- Uploaded to: SVG Repo, www.svgrepo.com, Generator: SVG Repo Mixer Tools -->
<svg height="800px" width="800px" version="1.1" id="Layer_1" xmlns="http://www.w3.org/2000/svg" xmlns:xlink="http://www.w3.org/1999/xlink" 
	 viewBox="0 0 512.001 512.001" xml:space="preserve">
<circle style="fill:#FFEC97;" cx="255.997" cy="255.996" r="255.996"/>
<path style="fill:#FFDB2D;" d="M512,255.999c0-28.923-4.802-56.724-13.643-82.654l-79.847-79.847l-0.05,0.04l0.045-0.045
	c0,0-156.899-7.166-238.939,74.874c-65.109,65.109-40.422,143.747-27.46,173.437L90.721,398.38c0,0,0.4,7.37,7.964,14.933
	l89.622,89.622c21.565,5.898,44.258,9.065,67.695,9.065C397.385,512,512,397.385,512,255.999z"/>
<path style="fill:#008C49;" d="M418.51,93.498l-0.05,0.04l0.045-0.045c0,0-156.899-7.166-238.939,74.874
	s-21.508,185.577-21.508,185.577s103.537,60.533,185.578-21.508C425.675,250.397,418.51,93.498,418.51,93.498z"/>
<path style="fill:#007539;" d="M418.51,93.498l-0.048,0.038L158.056,353.942l0.002,0.003c0,0,103.537,60.533,185.577-21.508
	C425.675,250.397,418.51,93.498,418.51,93.498z"/>
<path style="fill:#00BB64;" d="M331.42,271.647l-73.576-6.858l125.085-135.72l-83.871,77.298l-7.203-77.284l-8.074,91.364
	l-74.533,68.693l-6.604-70.846l-7.401,83.754L90.72,398.379c0,0,0.4,7.37,7.964,14.933c7.564,7.564,14.933,7.964,14.933,7.964
	l130.821-141.944L331.42,271.647z"/>
<path style="fill:#00A652;" d="M244.438,279.334l86.981-7.686l-73.576-6.858l125.08-135.714L98.685,413.314
	c7.563,7.563,14.933,7.964,14.933,7.964L244.438,279.334z"/>
</svg>