<?xml version="1.0" encoding="iso-8859-1"?>
<!-- Uploaded to: SVG Repo, www.svgrepo.com, Generator: SVG Repo Mixer Tools -->
<svg height="800px" width="800px" version="1.1" id="Layer_1" xmlns="http://www.w3.org/2000/svg" xmlns:xlink="http://www.w3.org/1999/xlink" 
	 viewBox="0 0 128 128" xml:space="preserve">
<g>
	<circle style="fill:#FF8E6E;" cx="64" cy="64" r="64"/>
	<g>
		<path style="fill:#F9FAF5;" d="M63.977,26.368c-9.491,0-23.201,7.382-23.201,22.146s10.546,13.71,12.655,39.02
			c2.109,1.055,4.218,1.389,10.546,1.389c6.327,0,8.437-0.334,10.546-1.389c2.109-25.31,12.655-24.256,12.655-39.02
			C87.177,33.75,73.468,26.368,63.977,26.368z"/>
		<path style="fill:#D9D9D9;" d="M73.468,92.059c0,1.165-0.944,2.109-2.109,2.109H56.594c-1.165,0-2.109-0.944-2.109-2.109l0,0
			c0-1.165,0.944-2.109,2.109-2.109h14.764C72.524,89.95,73.468,90.894,73.468,92.059L73.468,92.059z"/>
		<path style="fill:#6A6D58;" d="M63.977,102.254c3.495,0,6.327-1.254,6.327-4.254H57.649C57.649,101,60.482,102.254,63.977,102.254
			z"/>
		<path style="fill:#D9D9D9;" d="M73.468,95.807c0,0.874-0.708,1.582-1.582,1.582H56.067c-0.874,0-1.582-0.708-1.582-1.582l0,0
			c0-0.874,0.708-1.582,1.582-1.582h15.819C72.76,94.225,73.468,94.933,73.468,95.807L73.468,95.807z"/>
		<path style="fill:#FF8E6E;" d="M64.075,89.785L62.086,89.6c0.005-0.104,0.46-10.505,1.062-18.787
			c-0.025-0.431-0.055-0.851-0.088-1.261c-5.8-0.017-10.466-5.746-10.466-10.491c0-4.74,3.516-6.273,5.218-6.273
			c1.206,0,4.353,2.406,6.144,9.588c0.091-0.612,0.18-1.094,0.268-1.448c1.074-4.297,5.523-9.195,8.353-9.195
			c2.063,0,3.109,1.756,3.109,5.219c0,1.461-5.341,10.109-10.402,12.147c-0.045,0.563-0.089,1.141-0.132,1.729
			C65.458,76.26,65.096,82.638,64.075,89.785z M57.728,54.797c-0.509,0.069-3.134,0.612-3.134,4.264c0,3.759,3.79,8.337,8.265,8.487
			C61.752,58.41,58.616,55.212,57.728,54.797z M72.576,53.733c-1.441,0-5.401,3.633-6.413,7.68c-0.149,0.6-0.384,2.023-0.687,5.379
			c3.9-2.237,7.872-8.654,8.209-9.91C73.678,54.792,73.305,53.733,72.576,53.733z"/>
		<path style="fill:#D9D9D9;" d="M74.468,88.501c0,1.165-1.044,2.109-2.331,2.109h-16.32c-1.288,0-2.331-0.944-2.331-2.109l0,0
			c0-1.165,1.044-2.109,2.331-2.109h16.32C73.424,86.392,74.468,87.336,74.468,88.501L74.468,88.501z"/>
		<g style="opacity:0.1;">
			<g>
				<path style="fill:#F9FAEF;" d="M74.522,87.459c2.109-25.31,12.275-24.218,12.275-38.982S73.216,26.369,63.216,26.369v23.664
					v18.414V74h1.016c0.058,3-0.016,4.436-1.016,7.609v6.479v0.835c5,0,6.566-0.279,8.247-0.622
					C72.516,88.087,73.711,87.865,74.522,87.459z"/>
				<path style="fill:#F9FAEF;" d="M63.216,92.702v2.307v1.153v2.306v3.164c5,0,7.088,0.368,7.088-1.632h1.582
					c0.874,0,1.582-1.514,1.582-2.387c0-0.512-0.247-1.368-0.624-1.657c-0.381,0.378-0.906,0.398-1.485,0.398
					c0.579,0,1.102-0.434,1.483-0.811l0.002-0.047c0.386-0.382,0.625-0.88,0.625-1.466c0-0.75-0.395-1.344-0.986-1.718
					c-0.326,0.207-0.709,0.397-1.124,0.397c0.414,0,0.798-0.373,1.124-0.58c-0.326-0.206-0.709-0.578-1.124-0.578
					c0.414,0,0.798,0.324,1.124,0.53c0.591-0.374,0.986-0.928,0.986-1.679c0-0.997-1.074-1.778-2.004-1.998
					c-1.682,0.343-3.247,0.52-8.247,0.52v2.625v1.153H63.216z"/>
			</g>
		</g>
	</g>
</g>
</svg>