<svg width="47" height="42" viewBox="0 0 47 42" fill="none" xmlns="http://www.w3.org/2000/svg">
<path d="M46.1667 18.8333C46.1667 17.7282 45.7277 16.6684 44.9463 15.887C44.1649 15.1056 43.1051 14.6666 42 14.6666H28.8333L30.8333 5.14575C30.875 4.93742 30.8958 4.70825 30.8958 4.47908C30.8958 3.62492 30.5417 2.83325 29.9792 2.27075L27.7708 0.083252L14.0625 13.7916C13.2917 14.5624 12.8333 15.6041 12.8333 16.7499V37.5833C12.8333 38.6883 13.2723 39.7481 14.0537 40.5295C14.8351 41.3109 15.8949 41.7499 17 41.7499H35.75C37.4792 41.7499 38.9583 40.7083 39.5833 39.2083L45.875 24.5208C46.0625 24.0416 46.1667 23.5416 46.1667 22.9999V18.8333ZM0.333328 41.7499H8.66666V16.7499H0.333328V41.7499Z" fill="black"/>
</svg>
