<svg width="51" height="50" viewBox="0 0 51 50" fill="none" xmlns="http://www.w3.org/2000/svg">
<path d="M39.1042 5.9375L40.375 13.9792L47.6875 17.7083L44 25L47.7084 32.2917L40.3334 36.0208L39.0625 44.0625L30.9584 42.7917L25.1875 48.5417L19.3959 42.7083L11.3542 44.0417L10.0625 35.9375L2.79169 32.2292L6.50002 24.9375L2.81252 17.7083L10.125 13.9375L11.3959 5.95833L19.4584 7.29167L25.25 1.4375L31.0209 7.20833L39.1042 5.9375ZM20.0417 14.5833C19.2129 14.5833 18.418 14.9126 17.832 15.4986C17.2459 16.0847 16.9167 16.8795 16.9167 17.7083C16.9167 18.5371 17.2459 19.332 17.832 19.918C18.418 20.5041 19.2129 20.8333 20.0417 20.8333C20.8705 20.8333 21.6653 20.5041 22.2514 19.918C22.8374 19.332 23.1667 18.5371 23.1667 17.7083C23.1667 16.8795 22.8374 16.0847 22.2514 15.4986C21.6653 14.9126 20.8705 14.5833 20.0417 14.5833ZM30.4584 29.1667C29.6296 29.1667 28.8347 29.4959 28.2486 30.082C27.6626 30.668 27.3334 31.4629 27.3334 32.2917C27.3334 33.1205 27.6626 33.9153 28.2486 34.5014C28.8347 35.0874 29.6296 35.4167 30.4584 35.4167C31.2872 35.4167 32.082 35.0874 32.6681 34.5014C33.2541 33.9153 33.5834 33.1205 33.5834 32.2917C33.5834 31.4629 33.2541 30.668 32.6681 30.082C32.082 29.4959 31.2872 29.1667 30.4584 29.1667ZM17.7709 35.4167L35.6667 17.5208L32.7292 14.5833L14.8334 32.4792L17.7709 35.4167Z" fill="black"/>
</svg>
