<svg width="36" height="36" viewBox="0 0 36 36" fill="none" xmlns="http://www.w3.org/2000/svg">
<path d="M19.2486 32.702C23.9375 31.7621 30 28.389 30 19.6668C30 11.7294 24.1901 6.44389 20.0123 4.01527C19.0853 3.47635 18 4.18509 18 5.25738V8.0001C18 10.1629 17.0907 14.1107 14.564 15.7527C13.274 16.5911 11.8808 15.3363 11.724 13.8058L11.5953 12.5491C11.4456 11.088 9.95761 10.2011 8.78994 11.0919C6.69221 12.6922 4.5 15.4944 4.5 19.6668C4.5 30.3335 12.4333 33.0002 16.4 33.0002C16.6306 33.0002 16.8732 32.9933 17.1257 32.9787C15.167 32.8113 12 31.596 12 27.6663C12 24.5924 14.2426 22.5128 15.9465 21.5019C16.4047 21.23 16.9411 21.5831 16.9411 22.1159V22.9997C16.9411 23.676 17.2028 24.7334 17.8254 25.4571C18.5301 26.2761 19.5644 25.4181 19.6478 24.341C19.6742 24.0012 20.0159 23.7846 20.3102 23.9567C21.2721 24.5189 22.5 25.7198 22.5 27.6663C22.5 30.7383 20.8065 32.1515 19.2486 32.702Z" fill="#444444"/>
</svg>
