<svg width="1920" height="354" viewBox="0 0 1920 354" fill="none" xmlns="http://www.w3.org/2000/svg">
<path d="M0 170.826L64 186.058C128 200.72 256 232.039 384 201.148C512 170.826 640 79.7188 768 34.1652C896 -11.3884 1024 -11.3884 1152 34.1652C1280 79.7188 1408 170.826 1536 201.148C1664 232.039 1792 200.72 1856 186.058L1920 170.826V353.04H1856C1792 353.04 1664 353.04 1536 353.04C1408 353.04 1280 353.04 1152 353.04C1024 353.04 896 353.04 768 353.04C640 353.04 512 353.04 384 353.04C256 353.04 128 353.04 64 353.04H0V170.826Z" fill="#273036"/>
</svg>
